<?xml version="1.0" standalone="no"?>
<!DOCTYPE svg PUBLIC "-//W3C//DTD SVG 20010904//EN"
 "http://www.w3.org/TR/2001/REC-SVG-20010904/DTD/svg10.dtd">
<svg version="1.0" xmlns="http://www.w3.org/2000/svg"
 width="3333.000000pt" height="3333.000000pt" viewBox="0 0 3333.000000 3333.000000"
 preserveAspectRatio="xMidYMid meet">

<g transform="translate(0.000000,3333.000000) scale(0.100000,-0.100000)"
fill="#000000" stroke="none">
<path d="M16025 33324 c-33 -2 -154 -8 -270 -14 -3131 -160 -6193 -1231 -8760
-3063 -1269 -906 -2413 -1991 -3377 -3202 -1713 -2153 -2867 -4689 -3352
-7370 -127 -701 -197 -1296 -248 -2100 -18 -272 -18 -1548 0 -1820 51 -804
121 -1399 248 -2100 510 -2816 1760 -5476 3613 -7690 608 -726 1333 -1452
2061 -2064 1926 -1620 4194 -2784 6615 -3396 1111 -281 2213 -442 3388 -495
295 -13 1149 -13 1444 0 2426 110 4703 707 6838 1794 1993 1015 3752 2412
5200 4131 2031 2410 3344 5372 3759 8475 105 779 146 1420 146 2255 0 499 -8
774 -35 1165 -156 2248 -750 4393 -1769 6395 -949 1863 -2228 3517 -3801 4915
-2270 2017 -5077 3386 -8050 3924 -693 125 -1261 193 -2075 247 -152 10 -1439
21 -1575 13z m3281 -10359 c106 -53 184 -165 184 -266 0 -32 -4 -61 -10 -64
-5 -3 -10 -15 -10 -27 0 -11 -21 -48 -46 -82 -33 -44 -62 -70 -106 -93 -54
-30 -68 -33 -144 -33 -49 0 -84 4 -84 10 0 6 -7 10 -16 10 -21 0 -154 133
-154 154 0 9 -4 16 -10 16 -6 0 -10 38 -10 93 0 79 4 101 25 143 29 59 77 107
136 139 65 34 177 34 245 0z m-5532 -3605 c31 -16 63 -35 70 -42 30 -31 86
-119 86 -137 0 -11 5 -23 10 -26 6 -3 10 -30 10 -60 0 -30 -4 -57 -10 -60 -5
-3 -10 -16 -10 -28 -1 -12 -20 -49 -43 -81 -60 -84 -140 -126 -242 -126 -71 0
-89 5 -150 45 -101 66 -158 223 -124 340 35 117 155 204 280 205 55 0 77 -5
123 -30z m13251 -74 c55 -28 110 -78 130 -120 19 -38 19 -144 0 -189 -21 -50
-61 -95 -109 -120 -32 -17 -57 -21 -116 -21 -46 1 -75 5 -78 13 -2 6 -10 11
-18 11 -22 0 -105 80 -120 117 -21 48 -18 146 6 192 23 46 76 101 96 101 8 0
14 5 14 10 0 6 9 10 19 10 11 0 23 5 26 10 12 19 100 11 150 -14z m-7999
-2561 c62 -31 167 -136 199 -200 21 -41 25 -63 25 -140 0 -114 -20 -160 -112
-252 -91 -92 -139 -113 -254 -113 -83 0 -98 3 -150 31 -77 40 -144 107 -183
181 -28 55 -31 70 -31 150 0 79 3 96 31 154 30 61 115 153 143 154 6 1 29 14
51 30 37 27 46 29 136 30 82 0 102 -3 145 -25z m5965 -5212 c62 -46 82 -72
104 -138 37 -108 -35 -239 -154 -280 -98 -33 -179 -9 -254 75 -71 80 -85 154
-46 240 44 98 132 153 234 148 52 -3 67 -9 116 -45z m-7494 -3345 c75 -19 193
-146 193 -209 0 -10 5 -19 10 -19 6 0 10 -22 10 -49 0 -28 -4 -53 -10 -56 -5
-3 -10 -14 -10 -24 0 -61 -107 -177 -193 -209 -72 -27 -131 -28 -200 -2 -119
45 -192 149 -192 275 0 47 6 81 18 104 9 19 17 38 17 43 0 18 95 110 134 130
70 36 129 40 223 16z"/>
</g>
</svg>
