<?xml version="1.0" standalone="no"?>
<!DOCTYPE svg PUBLIC "-//W3C//DTD SVG 20010904//EN"
 "http://www.w3.org/TR/2001/REC-SVG-20010904/DTD/svg10.dtd">
<svg version="1.0" xmlns="http://www.w3.org/2000/svg"
 width="500.000000pt" height="500.000000pt" viewBox="0 0 500.000000 500.000000"
 preserveAspectRatio="xMidYMid meet">

<g transform="translate(0.000000,500.000000) scale(0.100000,-0.100000)"
fill="#000000" stroke="none">
<path d="M2400 4991 c0 -5 5 -11 12 -13 8 -3 5 -14 -10 -35 l-22 -31 38 -7
c20 -4 59 -9 85 -11 27 -2 53 -6 58 -10 11 -6 2 -46 -13 -55 -6 -4 -6 -9 1
-13 6 -4 11 -14 11 -22 0 -13 -16 -15 -101 -12 -55 1 -103 6 -105 10 -3 5 0 8
6 8 6 0 2 10 -9 21 -17 18 -26 20 -58 13 -21 -4 -48 -7 -60 -6 -12 2 -33 -9
-48 -24 -22 -22 -31 -25 -63 -19 -20 4 -42 11 -48 16 -8 7 -15 -2 -21 -28 -9
-38 -9 -38 -57 -36 -40 1 -47 -1 -41 -15 5 -13 2 -13 -15 3 -25 23 -26 38 -1
30 11 -3 22 -1 26 5 4 6 14 9 22 6 9 -4 13 -1 11 6 -3 7 -14 14 -25 16 -13 2
-24 13 -27 28 -6 21 -10 23 -21 14 -8 -6 -11 -18 -8 -26 3 -8 0 -14 -7 -14 -6
0 -8 5 -5 10 3 6 2 10 -2 10 -5 0 -14 -9 -21 -20 -10 -17 -9 -22 7 -31 17 -11
19 -49 2 -49 -3 0 -12 -10 -20 -22 -13 -21 -13 -22 2 -10 14 12 17 10 22 -15
4 -15 8 -33 10 -40 2 -7 0 -15 -5 -18 -5 -3 -21 13 -36 37 -17 26 -23 43 -15
46 6 2 11 10 11 18 0 8 7 14 15 14 8 0 15 5 15 11 0 6 -9 8 -20 5 -11 -3 -28
-8 -37 -11 -15 -4 -18 2 -18 29 0 19 3 38 8 42 15 16 7 43 -15 46 -13 2 -23
10 -23 18 0 11 10 14 39 12 26 -3 36 0 32 7 -15 24 -156 2 -156 -25 0 -7 -16
-14 -37 -17 -34 -3 -35 -5 -15 -12 17 -6 20 -10 11 -16 -10 -6 -8 -13 10 -29
14 -11 21 -23 17 -27 -4 -4 -10 -3 -14 3 -36 53 -40 56 -60 45 -12 -6 -24 -20
-27 -31 -11 -33 -36 -40 -74 -20 -27 14 -42 15 -69 8 -79 -22 -415 -229 -429
-264 -3 -8 -11 -14 -18 -14 -24 0 -168 -125 -286 -247 -367 -381 -593 -847
-676 -1390 -21 -138 -23 -517 -4 -653 30 -219 110 -517 180 -672 24 -52 30
-56 65 -33 40 26 156 45 281 45 193 0 206 -16 204 -255 -1 -138 -7 -187 -21
-186 -23 2 -41 -1 -31 -5 9 -4 9 -11 1 -30 -14 -30 -30 -32 -23 -1 6 25 -1 39
-30 55 -18 10 -19 11 -2 12 31 0 12 25 -19 25 -43 1 -46 -3 -28 -37 13 -25 14
-32 2 -39 -7 -5 -16 -9 -20 -9 -4 0 -8 -10 -10 -23 -2 -17 -11 -23 -35 -25
-37 -4 -44 13 -15 34 16 13 16 13 -1 14 -28 0 -9 20 19 20 37 0 29 20 -8 21
-18 0 -42 4 -53 8 -17 7 -16 9 13 15 27 6 31 10 21 22 -9 11 -8 15 5 19 51 16
51 16 37 24 -9 6 -4 11 18 19 32 11 42 32 15 32 -8 0 -12 5 -9 10 3 6 19 10
35 10 20 0 31 6 35 20 3 11 13 20 20 20 27 0 26 20 -2 31 -19 7 -29 7 -31 0
-2 -6 -11 -11 -20 -11 -13 0 -11 5 8 20 30 23 24 30 -23 32 -29 1 -34 4 -27
17 5 9 11 24 14 34 3 9 16 17 28 18 13 0 17 3 10 6 -9 3 -7 10 9 24 l22 19
-37 0 c-45 0 -131 -27 -147 -46 -16 -19 -35 -18 -51 4 -16 23 -80 23 -124 1
-28 -15 -32 -15 -41 0 -6 9 -14 13 -17 10 -8 -7 96 -215 117 -237 10 -9 13 -4
14 28 3 72 73 164 73 95 0 -25 -47 -135 -62 -146 -10 -7 32 -72 135 -212 l81
-110 35 39 c20 22 44 50 54 64 13 19 15 20 7 4 -5 -12 -26 -43 -45 -69 -35
-45 -36 -48 -19 -66 9 -11 34 -24 55 -29 43 -12 135 -92 180 -156 33 -49 35
-56 12 -47 -11 4 -14 3 -9 -6 5 -7 14 -10 21 -7 8 3 22 -9 34 -29 23 -39 187
-158 342 -248 186 -107 420 -200 649 -257 206 -52 574 -84 675 -59 28 7 105
14 172 15 244 7 593 109 868 253 123 64 285 166 285 179 0 4 12 13 28 19 24 9
25 11 8 18 -11 5 -25 3 -35 -3 -31 -23 -40 -24 -61 -4 -13 12 -30 17 -45 14
-14 -2 -31 1 -39 7 -10 9 -15 8 -20 -4 -3 -8 -12 -15 -20 -15 -9 0 -20 -10
-27 -22 -10 -18 -13 -19 -20 -6 -7 13 -13 14 -34 5 -14 -7 -25 -18 -25 -26 0
-26 -34 -91 -47 -91 -7 0 -13 -8 -14 -17 0 -16 -1 -15 -8 1 -6 17 -12 12 -36
-32 -29 -54 -45 -66 -45 -34 0 10 -3 22 -7 26 -4 4 -8 29 -9 56 -1 51 -13 73
-48 92 -21 11 -21 11 -2 -11 25 -28 14 -39 -13 -12 -24 24 -40 29 -22 7 7 -9
8 -17 2 -20 -5 -3 -7 -15 -4 -26 5 -19 -9 -26 -39 -21 -5 0 -8 -4 -8 -9 0 -6
12 -10 26 -10 14 0 23 -4 19 -10 -3 -5 -22 -10 -40 -10 -25 0 -33 4 -29 14 4
9 -9 18 -41 27 -38 11 -43 15 -24 19 39 9 31 26 -13 29 -47 2 -79 21 -37 21
l24 0 -24 13 c-15 8 -25 22 -27 41 -5 47 -12 56 -44 56 -20 0 -30 5 -30 16 0
8 5 12 10 9 6 -3 10 -2 10 3 0 5 -10 13 -22 16 l-23 7 24 10 c13 5 32 7 43 4
10 -4 32 1 50 9 36 19 68 21 68 5 0 -6 7 -8 17 -5 9 4 20 1 25 -6 5 -9 8 -7 8
8 0 31 -25 48 -57 40 -37 -9 -39 -9 -100 5 -36 8 -57 19 -68 35 -8 13 -22 24
-30 24 -7 0 -17 5 -21 12 -5 7 -2 8 7 3 9 -5 8 -1 -3 10 -19 21 -42 10 -35
-17 4 -12 1 -18 -6 -15 -7 2 -14 12 -16 23 -3 21 -30 54 -43 54 -15 0 -8 -29
17 -66 14 -20 25 -42 25 -49 0 -20 -24 -35 -40 -25 -24 15 -70 12 -70 -4 0 -8
5 -18 10 -21 6 -3 10 -22 10 -41 0 -21 4 -33 10 -29 5 3 16 2 24 -2 12 -7 12
-10 0 -21 -8 -7 -14 -8 -14 -2 0 5 -5 10 -12 10 -6 0 -4 -7 5 -18 19 -20 23
-57 7 -67 -5 -3 2 -22 15 -42 14 -20 25 -40 25 -44 0 -14 -27 -10 -40 6 -17
21 -70 20 -70 -1 0 -8 21 -42 46 -75 36 -48 43 -63 34 -74 -9 -11 -17 -11 -36
-3 -13 6 -26 9 -29 6 -7 -7 20 -59 35 -68 8 -5 9 -10 2 -14 -13 -8 -65 76 -87
140 -40 116 -32 186 42 371 55 137 79 163 155 163 30 0 65 -8 87 -19 35 -18
166 -71 176 -71 3 0 5 5 5 10 0 6 -8 10 -18 10 -10 0 -27 7 -38 16 -19 15 -18
15 4 11 35 -8 26 11 -10 22 -31 9 -31 10 -10 16 27 9 27 14 5 31 -17 13 -17
14 5 20 12 3 22 11 22 16 0 5 -5 6 -12 2 -8 -5 -9 -2 -5 10 4 10 7 27 7 38 0
13 6 18 18 16 9 -2 17 -8 17 -13 0 -6 5 -17 10 -25 6 -8 15 -24 21 -35 6 -12
18 -19 30 -17 44 8 282 4 297 -4 14 -8 -63 -9 -173 -1 -44 3 -51 -26 -7 -31
34 -4 36 -22 2 -22 -14 0 -25 -5 -25 -11 0 -5 10 -9 22 -7 11 2 23 -3 25 -9 3
-9 -7 -14 -29 -15 -18 -1 -40 -2 -48 -4 -8 -1 -26 -3 -40 -4 -14 -1 -19 -4
-12 -7 17 -7 15 -23 -3 -23 -10 0 -15 11 -16 33 0 28 -1 29 -9 11 -14 -35 -8
-47 58 -111 74 -72 106 -137 128 -255 9 -46 21 -87 26 -93 8 -7 9 -6 4 2 -14
25 73 132 159 198 17 12 53 30 81 39 51 16 287 38 321 30 13 -3 54 30 138 110
79 75 114 115 102 115 -10 1 -15 6 -12 11 4 6 11 7 17 4 20 -12 156 144 144
165 -4 5 3 12 14 16 23 7 26 20 8 29 -10 5 -10 7 -1 12 13 6 6 34 -9 34 -5 0
-14 -13 -19 -30 -11 -31 -29 -41 -29 -15 0 8 5 15 10 15 6 0 10 6 10 13 0 9
-20 12 -77 9 -94 -3 -81 14 19 25 53 6 58 8 33 14 l-30 7 33 1 c17 0 32 -3 32
-9 0 -5 7 -10 16 -10 27 0 58 -21 44 -30 -8 -5 -9 -10 -2 -14 13 -8 44 32 118
154 175 289 296 634 345 990 20 137 17 515 -4 654 -10 60 -18 110 -19 111 -2
1 -37 7 -78 13 -83 14 -164 48 -153 65 4 6 0 8 -9 4 -9 -3 -24 1 -35 9 -17 14
-17 15 3 5 12 -6 24 -8 27 -4 4 3 14 0 22 -7 9 -7 28 -14 43 -16 15 -1 57 -6
95 -10 72 -7 74 -6 61 43 -4 14 -16 23 -33 26 -25 4 -25 4 -3 12 25 8 30 25 7
25 -18 0 -20 17 -3 22 7 3 9 14 4 31 -6 26 -9 27 -73 27 -49 0 -79 6 -117 24
-29 14 -65 28 -81 32 -17 4 -34 10 -40 14 -5 4 -26 13 -46 19 -48 15 -87 58
-94 103 -5 29 3 58 40 142 25 59 45 109 45 112 0 7 52 86 78 118 26 33 33 18
-76 175 -47 68 -67 89 -73 80 -6 -10 -9 -8 -9 9 0 12 -4 22 -9 22 -5 0 -12 10
-15 23 -4 12 -22 40 -42 62 -33 37 -36 39 -49 22 -7 -10 -16 -41 -20 -68 -8
-60 -30 -65 -39 -10 -4 27 -12 40 -26 44 -27 7 -25 27 3 27 20 1 20 2 5 11
-20 11 -24 39 -6 39 6 0 8 3 4 8 -4 4 -33 7 -63 7 -60 0 -58 -2 -65 67 -1 9
-13 19 -25 23 -13 3 -23 12 -23 21 0 8 -7 17 -15 20 -11 4 -12 11 -5 24 7 14
5 20 -8 26 -14 6 -11 8 13 14 31 7 25 13 -28 24 -23 6 -27 10 -21 28 4 13 2
18 -5 14 -5 -4 -19 2 -31 14 -25 25 -29 25 -23 0 3 -11 0 -20 -6 -20 -6 0 -13
11 -17 25 -3 13 -13 30 -22 37 -13 11 -14 10 -5 -7 11 -21 28 -94 25 -107 -1
-5 3 -8 8 -8 6 0 10 -4 10 -10 0 -14 -23 -12 -56 5 -37 19 -74 19 -74 1 0 -8
5 -18 10 -21 6 -3 10 -26 10 -50 0 -52 9 -59 70 -57 35 2 41 0 28 -8 -9 -6
-29 -8 -43 -6 -20 4 -25 1 -22 -9 3 -7 0 -21 -8 -31 -11 -16 -9 -23 11 -50 13
-17 24 -36 24 -42 0 -15 -17 -16 -25 -2 -4 6 -16 8 -28 5 -15 -4 -18 -3 -9 3
10 7 7 11 -13 14 -17 4 -28 1 -32 -8 -6 -17 -24 -19 -20 -3 1 6 -3 13 -8 15
-6 2 -11 -6 -13 -19 -1 -15 11 -35 33 -57 35 -34 49 -33 18 2 -9 10 -14 21
-11 24 8 8 89 -107 82 -117 -3 -5 -21 -6 -41 -3 -26 4 -33 2 -28 -7 5 -7 3
-10 -6 -7 -17 6 -48 86 -59 155 -6 35 -4 72 5 120 19 92 81 250 116 294 l28
36 -103 62 c-340 202 -683 314 -1071 351 -137 12 -315 13 -315 1z m57 -58 c-3
-10 -5 -4 -5 12 0 17 2 24 5 18 2 -7 2 -21 0 -30z m-770 -135 c-3 -8 -6 -5 -6
6 -1 11 2 17 5 13 3 -3 4 -12 1 -19z m764 -55 c7 -20 6 -28 -3 -35 -17 -10
-20 -10 -38 2 -13 9 -12 13 5 27 16 12 16 14 3 10 -18 -6 -32 5 -21 17 15 15
44 4 54 -21z m-826 7 c3 -5 1 -10 -4 -10 -6 0 -11 5 -11 10 0 6 2 10 4 10 3 0
8 -4 11 -10z m-205 -40 c0 -5 -7 -7 -15 -4 -8 4 -15 8 -15 10 0 2 7 4 15 4 8
0 15 -4 15 -10z m285 -23 c17 -29 14 -90 -5 -102 -6 -3 -7 1 -3 11 5 13 2 15
-18 9 -21 -7 -22 -6 -10 9 8 9 11 19 9 22 -3 3 -12 -9 -19 -25 -9 -21 -21 -31
-35 -31 -12 0 -27 -6 -33 -14 -23 -28 -91 -4 -91 31 0 7 -4 13 -10 13 -5 0
-10 5 -10 12 0 6 3 8 6 5 9 -8 40 27 55 62 11 24 16 26 80 26 64 1 68 -1 84
-28z m593 -9 c-2 -6 -10 -14 -16 -16 -7 -2 -10 2 -6 12 7 18 28 22 22 4z m330
-9 c-10 -5 -26 -5 -40 0 -20 7 -17 9 16 9 29 0 36 -2 24 -9z m-698 -6 c0 -5
-5 -15 -10 -23 -7 -12 -9 -10 -7 8 1 19 17 33 17 15z m260 3 c0 -2 -8 -10 -17
-17 -16 -13 -17 -12 -4 4 13 16 21 21 21 13z m-750 -19 c0 -2 -10 -12 -21 -23
-22 -19 -22 -19 -8 4 12 19 29 30 29 19z m767 -29 c-3 -8 -6 -5 -6 6 -1 11 2
17 5 13 3 -3 4 -12 1 -19z m123 12 c0 -5 -5 -10 -11 -10 -5 0 -7 5 -4 10 3 6
8 10 11 10 2 0 4 -4 4 -10z m213 -26 c15 -9 16 -15 7 -39 -6 -15 -8 -30 -5
-33 3 -3 5 0 5 7 0 8 7 10 22 5 20 -6 21 -5 9 10 -8 9 -12 18 -10 20 2 2 12
-7 22 -20 11 -14 13 -24 6 -24 -6 0 -9 -7 -5 -15 6 -16 -9 -21 -18 -6 -7 11
-56 11 -56 -1 0 -5 4 -6 10 -3 6 3 7 -1 3 -10 -4 -12 -8 -13 -13 -5 -5 8 -14
3 -28 -14 -29 -37 -35 -32 -12 10 l21 36 -21 -7 c-14 -5 -20 -2 -20 9 0 9 8
16 18 16 16 1 16 1 -1 11 -9 5 -21 8 -26 4 -5 -3 -12 -1 -16 5 -3 5 -1 10 5
10 6 0 8 5 5 10 -3 6 -1 10 4 10 6 0 11 6 11 14 0 26 39 26 83 0z m-562 -19
c11 4 19 2 19 -5 0 -6 5 -8 10 -5 6 4 8 9 6 13 -2 4 8 8 22 9 25 1 24 0 -14
-33 -21 -18 -43 -33 -49 -33 -5 0 -2 6 8 13 22 17 22 25 -2 23 -18 -1 -37 -38
-33 -59 4 -16 -25 -7 -43 12 -15 17 -16 24 -6 46 9 21 14 24 26 14 13 -10 15
-8 15 11 1 22 2 22 11 6 7 -12 17 -16 30 -12z m-623 -18 c37 -56 28 -78 -35
-84 -24 -3 -33 0 -33 12 0 8 4 15 9 15 5 0 7 8 4 18 -5 20 12 72 24 72 5 0 18
-15 31 -33z m933 24 c5 8 9 9 9 3 0 -6 -7 -17 -15 -24 -8 -7 -12 -16 -9 -21 3
-5 -1 -7 -8 -4 -7 3 -14 17 -14 30 -2 22 0 24 13 14 12 -10 16 -10 24 2z
m-1101 -9 c0 -5 -7 -17 -15 -28 -13 -18 -14 -18 -8 5 5 20 3 23 -11 18 -10 -4
-15 -3 -11 3 7 12 45 13 45 2z m964 -7 c-4 -8 -10 -12 -15 -9 -11 6 -2 24 11
24 5 0 7 -7 4 -15z m39 0 c-3 -9 -8 -14 -10 -11 -3 3 -2 9 2 15 9 16 15 13 8
-4z m-912 -36 c8 -15 8 -19 0 -15 -14 9 -14 7 0 -33 8 -23 8 -35 -1 -45 -8
-11 -8 -16 2 -23 7 -4 14 -16 14 -25 1 -14 -2 -16 -14 -9 -18 10 -52 -3 -52
-21 0 -7 5 -6 15 2 18 15 19 7 3 -19 -11 -18 -12 -18 -25 6 -18 35 -17 42 12
53 14 5 25 17 25 25 0 9 -5 13 -10 10 -6 -4 -8 -11 -5 -16 10 -15 -5 -10 -22
7 -14 14 -14 16 6 21 11 3 21 10 21 15 0 5 -8 7 -18 4 -11 -4 -25 1 -36 13
-16 18 -16 19 9 19 14 0 25 -5 25 -11 0 -6 3 -7 6 -4 9 9 -16 38 -27 31 -5 -3
-9 2 -9 10 0 23 25 19 44 -6 10 -15 16 -18 15 -8 -4 44 5 51 22 19z m917 -6
c-14 -17 -28 -16 -28 1 0 8 9 14 19 13 15 -1 17 -4 9 -14z m42 -3 c0 -19 -11
-26 -23 -14 -8 8 3 34 14 34 5 0 9 -9 9 -20z m-1150 0 c0 -5 -4 -10 -10 -10
-5 0 -10 5 -10 10 0 6 5 10 10 10 6 0 10 -4 10 -10z m52 -41 c-22 -25 -35 -24
-27 2 5 16 4 19 -5 14 -8 -5 -11 -4 -7 2 4 6 17 8 31 6 23 -5 23 -6 8 -24z
m268 -4 c-7 -9 -15 -13 -18 -10 -3 2 1 11 8 20 7 9 15 13 18 10 3 -2 -1 -11
-8 -20z m590 15 c0 -5 -5 -10 -11 -10 -5 0 -7 5 -4 10 3 6 8 10 11 10 2 0 4
-4 4 -10z m110 -26 c14 1 32 6 40 11 8 5 27 10 43 11 26 2 27 0 27 -51 0 -68
-21 -96 -51 -69 -15 14 -22 15 -31 6 -15 -15 -32 -16 -23 -2 3 6 2 10 -4 10
-5 0 -13 -4 -16 -10 -11 -17 -71 -11 -89 9 -13 14 -14 24 -6 45 5 14 15 38 20
52 l10 25 28 -19 c15 -10 38 -18 52 -18z m466 -2 c-10 -10 -29 15 -21 28 6 9
10 8 17 -4 6 -10 7 -20 4 -24z m-1393 -9 c-4 -11 -8 -13 -11 -5 -2 7 -9 9 -15
5 -7 -4 -6 1 2 10 16 20 33 13 24 -10z m164 1 c11 -3 24 -16 27 -27 6 -22 6
-22 19 3 14 28 58 35 62 10 17 -106 18 -101 -8 -95 -14 4 -28 2 -31 -4 -11
-18 -25 -13 -39 15 -9 17 -17 23 -21 15 -4 -6 -16 -11 -27 -11 -15 0 -20 6
-18 23 2 12 0 28 -5 35 -9 14 -1 42 11 42 4 0 18 -3 30 -6z m443 -57 c-1 -13
-26 16 -41 48 -7 13 -1 10 15 -8 14 -15 26 -33 26 -40z m-720 49 c0 -3 -4 -8
-10 -11 -5 -3 -10 -1 -10 4 0 6 5 11 10 11 6 0 10 -2 10 -4z m1515 -6 c-3 -5
-14 -10 -23 -10 -15 0 -15 2 -2 10 20 13 33 13 25 0z m657 -17 c50 -20 92 -69
114 -135 25 -69 25 -256 0 -383 -56 -292 -203 -731 -463 -1380 -46 -115 -94
-237 -107 -270 -13 -33 -27 -69 -31 -80 -8 -19 -7 -19 11 -4 10 9 38 26 62 38
47 24 53 32 20 24 -23 -4 -23 -4 -3 11 11 9 25 14 31 12 14 -5 80 60 67 66 -4
3 -2 3 5 2 7 -2 57 38 110 88 132 124 254 228 270 228 6 0 12 4 12 9 0 6 43
58 95 118 52 59 136 165 187 236 56 79 100 130 113 133 30 7 105 -14 111 -31
5 -12 11 -10 34 6 31 24 58 22 74 -4 15 -24 -32 -114 -125 -237 -282 -373
-737 -780 -1216 -1087 l-103 -66 -86 -166 c-226 -434 -374 -665 -534 -834 -59
-63 -176 -157 -195 -157 -5 0 -16 -6 -24 -13 -21 -18 -90 -37 -133 -37 -19 0
-59 7 -89 16 -44 14 -50 18 -34 25 21 8 8 13 -26 10 -8 -1 -24 8 -35 20 -17
21 -18 22 -1 16 11 -4 16 -3 12 3 -3 6 -14 10 -25 10 -10 0 -21 7 -24 16 -4
12 -2 15 9 10 8 -3 15 -3 15 0 0 2 -11 9 -24 14 -33 12 -46 84 -23 127 8 15
22 65 31 110 20 96 42 154 57 150 6 -1 14 4 17 12 3 9 0 11 -7 7 -7 -4 -19 -5
-29 -1 -14 5 -14 7 -2 16 13 8 12 11 -3 23 -25 19 -19 35 57 169 64 113 110
172 125 162 5 -3 12 -1 16 5 3 5 0 10 -7 10 -7 1 -3 9 11 20 12 11 27 18 31
15 5 -3 12 0 16 6 4 8 3 9 -4 5 -7 -4 -12 -3 -12 3 0 18 74 71 100 71 17 0 21
3 12 9 -15 9 11 31 137 109 49 32 97 54 117 56 37 3 59 16 28 16 -12 0 1 13
36 35 36 23 63 33 77 30 19 -4 31 14 112 180 50 101 91 186 91 189 0 2 19 44
41 93 205 438 543 1263 637 1553 39 121 62 200 57 200 -7 0 -156 -190 -231
-295 -96 -133 -143 -207 -166 -257 -9 -21 -30 -57 -46 -80 -16 -24 -82 -140
-147 -258 -412 -752 -646 -1051 -929 -1184 -89 -42 -271 -47 -284 -8 -3 9 21
12 92 12 167 0 266 50 441 225 187 185 364 453 670 1010 48 88 105 185 125
215 20 30 47 77 58 104 46 103 378 548 444 595 21 14 21 14 15 -42 -28 -230
-488 -1387 -842 -2114 l-84 -171 -103 -58 c-322 -180 -483 -316 -565 -479 -14
-27 -36 -67 -49 -87 -13 -21 -24 -40 -24 -44 0 -17 32 24 73 94 45 76 130 182
147 182 5 0 -19 -44 -52 -97 -119 -189 -187 -360 -197 -497 -4 -57 -10 -80
-19 -79 -16 4 -15 -1 8 -47 41 -81 150 -115 257 -82 216 68 456 381 787 1029
l68 132 129 81 c257 162 586 421 811 638 188 182 398 429 473 556 35 60 28 81
-13 37 -18 -18 -32 -28 -32 -21 0 7 -7 10 -15 6 -10 -3 -15 1 -15 14 0 24 -18
36 -33 21 -16 -16 -27 -14 -27 5 0 28 -24 9 -73 -57 -84 -113 -216 -282 -268
-343 -27 -32 -48 -60 -45 -63 8 -9 37 13 49 37 12 23 133 97 143 87 7 -6 -79
-108 -150 -176 -30 -30 -58 -52 -62 -49 -3 4 16 28 43 55 27 26 57 59 68 72
l20 24 -23 -14 c-13 -8 -50 -41 -82 -74 -60 -61 -89 -70 -50 -16 12 17 18 31
14 31 -16 0 -123 -88 -223 -185 -191 -183 -232 -219 -283 -247 -28 -15 -71
-44 -97 -65 -68 -54 -69 -55 -74 -46 -3 5 21 69 54 143 129 288 361 886 476
1225 134 395 180 688 133 848 -32 107 -160 168 -253 121 -58 -30 -136 -104
-223 -212 -106 -133 -256 -360 -312 -472 -53 -106 -273 -454 -287 -453 -5 1
-23 -20 -40 -45 -118 -188 -331 -504 -416 -619 -166 -224 -388 -476 -405 -460
-15 14 -17 187 -4 277 36 251 145 617 275 925 127 299 173 443 145 460 -18 11
-34 -14 -66 -99 -35 -92 -113 -246 -126 -246 -13 0 -5 24 63 185 32 77 59 146
59 153 0 15 -16 16 -25 2 -14 -23 -22 2 -12 35 8 26 7 39 -1 47 -9 9 -12 9
-12 0 0 -7 -6 -12 -14 -12 -7 0 -21 -10 -30 -22 -16 -22 -16 -22 -10 17 l7 40
-20 -25 c-70 -87 -229 -396 -321 -625 -154 -381 -222 -655 -222 -891 0 -71 -4
-124 -9 -124 -16 0 -22 18 -10 26 8 5 7 9 -2 14 -16 11 -21 147 -8 250 18 139
75 357 145 555 104 291 295 683 402 823 24 32 28 33 71 27 49 -7 71 -26 71
-61 0 -25 16 -34 52 -27 42 8 61 -21 55 -81 -8 -70 -31 -137 -140 -407 -187
-464 -272 -766 -284 -1014 -6 -122 -5 -129 11 -116 13 11 14 16 4 22 -9 6 -7
9 8 9 36 0 254 265 448 545 130 187 318 478 427 661 94 158 358 553 463 692
75 101 168 201 228 246 76 57 140 65 230 29z m-1498 -13 c16 -6 26 -17 26 -30
0 -27 -70 -120 -90 -120 -29 0 -57 42 -63 93 -4 46 -4 47 24 47 15 0 31 5 34
10 8 13 36 13 69 0z m-644 -4 c0 -2 -7 -7 -16 -10 -8 -3 -12 -2 -9 4 6 10 25
14 25 6z m195 -56 c3 -5 2 -10 -4 -10 -5 0 -13 5 -16 10 -3 6 -2 10 4 10 5 0
13 -4 16 -10z m2671 -3 c4 -4 -9 -7 -30 -7 -23 0 -35 4 -31 10 7 11 49 9 61
-3z m-2526 -17 c0 -5 7 -7 15 -4 8 4 15 1 15 -5 0 -6 -11 -13 -25 -17 -14 -3
-23 -9 -21 -13 3 -4 -4 -7 -14 -7 -12 0 -16 5 -12 16 11 33 42 55 42 30z m434
-32 c-3 -5 -9 -6 -14 -3 -5 3 -5 -7 -1 -23 11 -39 -21 -77 -65 -77 -55 1 -84
46 -49 75 8 7 15 19 15 27 0 12 3 13 14 4 11 -10 16 -9 23 2 4 8 17 17 28 19
23 5 56 -12 49 -24z m1996 2 c0 -5 -4 -10 -10 -10 -5 0 -10 5 -10 10 0 6 5 10
10 10 6 0 10 -4 10 -10z m-2420 -30 c0 -5 -5 -10 -11 -10 -5 0 -7 5 -4 10 3 6
8 10 11 10 2 0 4 -4 4 -10z m2550 -10 c0 -5 -2 -10 -4 -10 -3 0 -8 5 -11 10
-3 6 -1 10 4 10 6 0 11 -4 11 -10z m-2539 -37 c-12 -20 -14 -14 -5 12 4 9 9
14 11 11 3 -2 0 -13 -6 -23z m464 -23 c15 -28 15 -30 -4 -30 -22 0 -46 34 -36
50 11 17 24 11 40 -20z m2070 6 c-11 -8 -16 -19 -12 -30 5 -12 0 -16 -23 -16
-33 0 -49 17 -26 26 25 9 19 22 -11 27 -16 2 -1 5 31 6 53 1 58 -1 41 -13z
m-2457 -52 c-4 -3 -12 5 -18 18 -12 22 -12 22 6 6 10 -10 15 -20 12 -24z m710
12 c3 -11 0 -16 -7 -12 -6 4 -11 2 -11 -3 0 -6 4 -11 9 -11 5 0 9 -21 9 -47 1
-34 -2 -43 -10 -35 -8 8 -14 7 -23 -5 -9 -11 -18 -14 -31 -8 -10 5 -25 9 -33
9 -20 1 -23 18 -6 40 12 16 17 17 32 5 15 -11 16 -11 6 1 -19 21 -16 36 10 48
17 8 18 11 5 11 -17 1 -24 12 -13 22 2 3 17 5 32 4 19 0 29 -6 31 -19z m-118
-16 c12 -16 18 -31 13 -31 -9 -1 -22 -4 -38 -9 -20 -5 -30 -7 -50 -9 -11 -2
-15 -5 -7 -8 6 -2 12 -13 12 -23 0 -10 6 -20 13 -23 6 -2 0 -6 -15 -9 -23 -4
-31 0 -47 25 -15 24 -17 35 -9 51 18 33 42 54 68 59 14 2 28 5 32 6 4 0 16
-12 28 -29z m1890 -20 c0 -5 -11 -9 -25 -8 -14 1 -25 6 -25 10 0 4 11 8 25 8
14 0 25 -4 25 -10z m23 -47 c-13 -2 -33 -2 -45 0 -13 2 -3 4 22 4 25 0 35 -2
23 -4z m-1943 -13 c0 -5 -2 -10 -4 -10 -3 0 -8 5 -11 10 -3 6 -1 10 4 10 6 0
11 -4 11 -10z m1977 -34 c3 -3 -10 -6 -31 -6 -20 0 -35 4 -32 9 6 10 52 8 63
-3z m-1259 -78 c-100 -157 -393 -634 -394 -644 -3 -19 -176 -296 -181 -290 -6
5 45 100 164 310 40 70 70 132 67 137 -6 10 20 52 27 44 3 -2 14 10 24 28 16
28 17 30 2 18 -26 -21 -31 -7 -11 31 35 67 82 117 68 71 -10 -32 55 50 147
185 50 72 93 132 96 132 3 0 -1 -10 -9 -22z m1020 -45 c8 -7 10 -13 3 -17 -6
-4 -18 8 -27 26 -10 21 -11 28 -3 18 8 -8 20 -20 27 -27z m75 -100 c32 -33 54
-64 48 -67 -8 -5 -56 45 -111 118 -29 38 6 10 63 -51z m26 -82 c9 -6 -4 -8
-34 -6 -26 2 -49 6 -53 9 -9 10 72 6 87 -3z m-817 -152 c-52 -149 -62 -173
-67 -167 -5 5 33 120 75 231 39 103 33 53 -8 -64z m-1573 -290 c-28 -74 -85
-230 -125 -348 -41 -118 -77 -217 -80 -220 -31 -29 142 485 219 653 50 110 42
61 -14 -85z m1398 -195 c-30 -82 -57 -162 -61 -178 -9 -36 -102 -236 -110
-236 -8 0 46 148 124 345 79 196 92 227 97 221 2 -2 -20 -71 -50 -152z m1688
-32 c-3 -3 -16 5 -28 17 l-22 23 28 -17 c15 -10 25 -20 22 -23z m-131 -2 c6
-34 -11 -80 -31 -80 -7 0 -16 0 -20 -1 -4 0 -9 4 -11 10 -2 6 3 11 12 11 10 0
17 14 22 45 7 52 19 58 28 15z m46 -48 c14 -80 9 -152 -18 -247 l-20 -70 -12
33 c-7 17 -16 32 -21 32 -5 0 -9 9 -9 21 0 18 4 20 32 14 25 -6 30 -5 25 8 -3
9 1 21 9 27 18 16 18 25 -2 44 -13 14 -14 22 -4 51 9 26 9 44 1 67 -13 38 -15
101 -2 94 5 -4 15 -36 21 -74z m-227 61 c-7 -2 -21 -2 -30 0 -10 3 -4 5 12 5
17 0 24 -2 18 -5z m-63 -173 c0 -5 -4 -10 -10 -10 -5 0 -10 5 -10 10 0 6 5 10
10 10 6 0 10 -4 10 -10z m30 -45 c0 -10 -9 -14 -30 -12 -16 1 -30 5 -30 9 0 6
11 9 53 17 4 0 7 -6 7 -14z m16 -38 c14 -13 -8 -24 -41 -20 -26 2 -35 0 -35
-11 0 -11 8 -13 36 -9 29 5 36 3 32 -8 -3 -8 -19 -14 -41 -14 -35 0 -37 2 -37
31 0 17 2 33 5 35 6 7 74 4 81 -4z m-706 -32 c-7 -8 -17 -15 -22 -15 -6 0 -5
7 2 15 7 8 17 15 22 15 6 0 5 -7 -2 -15z m680 -55 c0 -5 -2 -10 -4 -10 -3 0
-8 5 -11 10 -3 6 -1 10 4 10 6 0 11 -4 11 -10z m202 -5 c0 -5 -5 -11 -11 -13
-6 -2 -11 4 -11 13 0 9 5 15 11 13 6 -2 11 -8 11 -13z m-242 1 c0 -3 -4 -8
-10 -11 -5 -3 -10 -1 -10 4 0 6 5 11 10 11 6 0 10 -2 10 -4z m-166 -68 c6 -35
9 -40 17 -25 15 26 30 20 23 -9 -5 -19 -4 -25 5 -20 18 11 25 -23 10 -52 -16
-33 -20 -59 -13 -94 5 -23 11 -28 33 -28 33 0 56 36 46 71 -4 16 -3 20 3 11 7
-11 11 -8 14 12 3 14 1 23 -3 20 -5 -3 -9 -2 -9 3 0 4 11 13 25 20 22 10 27 8
44 -13 23 -30 27 -30 35 -2 4 18 8 20 18 10 17 -17 28 -15 28 6 0 10 5 23 12
30 9 9 9 18 -1 38 -15 34 -7 42 19 19 16 -14 23 -16 32 -7 7 7 21 12 33 12 15
0 17 2 6 9 -16 10 -5 17 32 19 20 1 27 -3 27 -16 0 -23 -29 -64 -41 -57 -5 3
-6 -1 -3 -9 4 -11 -3 -19 -21 -26 -14 -5 -24 -14 -21 -19 9 -14 -144 -149
-183 -162 -59 -20 -102 1 -171 84 -33 40 -55 74 -50 75 17 6 11 22 -9 22 -10
0 -22 7 -25 16 -3 8 -2 13 3 9 13 -8 42 5 35 16 -3 5 -10 7 -15 4 -5 -4 -9 -2
-9 4 0 5 6 14 14 18 7 4 18 18 25 31 17 33 28 27 35 -20z m163 26 c-3 -3 -12
-4 -19 -1 -8 3 -5 6 6 6 11 1 17 -2 13 -5z m-18 -55 c-16 -10 -23 -4 -14 10 3
6 11 8 17 5 6 -4 5 -9 -3 -15z m-2142 5 c-3 -3 -12 -4 -19 -1 -8 3 -5 6 6 6
11 1 17 -2 13 -5z m-97 -31 c0 -19 -80 -133 -92 -133 -11 0 2 29 42 93 35 59
50 70 50 40z m2250 -14 c0 -5 -7 -9 -15 -9 -8 0 -15 7 -15 15 0 9 6 12 15 9 8
-4 15 -10 15 -15z m-2387 -191 c-47 -60 -173 -239 -173 -246 0 -5 -11 -19 -25
-32 -19 -18 -28 -21 -37 -12 -15 15 2 40 94 139 40 43 88 97 106 121 19 23 36
42 39 42 3 0 1 -6 -4 -12z m-358 -108 c-3 -5 -11 -10 -16 -10 -6 0 -7 5 -4 10
3 6 11 10 16 10 6 0 7 -4 4 -10z m1425 -5 c-7 -8 -17 -15 -22 -15 -6 0 -5 7 2
15 7 8 17 15 22 15 6 0 5 -7 -2 -15z m-1820 -81 c0 -8 -5 -12 -10 -9 -6 4 -8
11 -5 16 9 14 15 11 15 -7z m1470 -8 c-25 -66 -84 -186 -91 -186 -9 0 -5 11
26 85 19 44 65 125 71 125 2 0 -1 -11 -6 -24z m-1305 -216 c3 -5 -1 -10 -9
-10 -8 0 -18 5 -21 10 -3 6 1 10 9 10 8 0 18 -4 21 -10z m856 -143 c-10 -9
-11 -8 -5 6 3 10 9 15 12 12 3 -3 0 -11 -7 -18z m-134 -359 c-14 -24 -53 -92
-87 -153 -133 -233 -294 -466 -346 -500 -22 -14 -25 -14 -30 0 -9 22 19 129
57 220 65 157 201 326 343 426 38 27 73 49 78 49 5 0 -2 -19 -15 -42z m-1444
-115 c-7 -2 -19 -2 -25 0 -7 3 -2 5 12 5 14 0 19 -2 13 -5z m5 -35 c-7 -19
-38 -22 -38 -4 0 10 9 16 21 16 12 0 19 -5 17 -12z m85 -45 c-7 -2 -19 -2 -25
0 -7 3 -2 5 12 5 14 0 19 -2 13 -5z m987 -58 c0 -3 -17 -42 -39 -88 -21 -45
-51 -117 -66 -159 -15 -43 -32 -78 -36 -78 -14 0 -11 12 22 107 37 104 95 223
109 223 6 0 10 -2 10 -5z m2800 -199 c0 -8 -5 -18 -10 -21 -6 -4 -8 -11 -5
-16 4 -5 -1 -19 -9 -31 -13 -19 -16 -20 -16 -5 0 13 -6 16 -24 11 -13 -3 -27
-1 -30 5 -4 7 1 11 13 11 11 0 23 5 26 10 3 6 0 10 -8 10 -8 0 -20 6 -26 14
-10 12 -7 15 16 19 58 8 73 7 73 -7z m20 -51 c0 -8 -4 -15 -10 -15 -5 0 -10 7
-10 15 0 8 5 15 10 15 6 0 10 -7 10 -15z m-262 -2 c-10 -2 -26 -2 -35 0 -10 3
-2 5 17 5 19 0 27 -2 18 -5z m-978 -38 c-7 -9 -15 -13 -19 -10 -3 3 1 10 9 15
21 14 24 12 10 -5z m1164 0 c4 -12 -4 -15 -46 -15 -69 0 -50 19 28 29 7 0 14
-6 18 -14z m-219 -5 c-3 -5 -22 -10 -41 -10 -21 0 -33 4 -29 10 3 6 22 10 41
10 21 0 33 -4 29 -10z m211 -30 c19 0 18 -19 -1 -26 -20 -8 -85 4 -85 16 0 10
38 19 58 14 8 -2 20 -4 28 -4z m-1221 -28 c-1 -15 -7 -37 -13 -47 -10 -18 -11
-18 -12 -2 0 9 -4 17 -10 17 -18 0 -11 20 8 20 16 1 16 1 -1 14 -14 11 -15 15
-5 19 28 11 36 6 33 -21z m39 1 c-4 -16 -11 -32 -17 -38 -7 -7 -8 -4 -3 8 3
10 6 27 6 38 0 10 5 19 10 19 6 0 8 -11 4 -27z m911 17 c-3 -5 -15 -10 -26
-10 -11 0 -17 5 -14 10 3 6 15 10 26 10 11 0 17 -4 14 -10z m253 -39 c21 -13
-5 -20 -48 -13 l-35 6 30 7 c17 4 32 7 35 8 3 0 11 -3 18 -8z m-630 -59 c-1
-4 4 -18 11 -31 9 -17 10 -22 1 -19 -7 2 -18 18 -25 35 -12 27 -11 31 0 26 8
-2 14 -8 13 -11z m-631 -259 c3 -7 -4 -9 -18 -6 -16 4 -20 2 -17 -8 2 -8 14
-15 26 -17 25 -4 30 -22 7 -22 -8 0 -15 -4 -15 -10 0 -5 9 -10 20 -10 11 0 20
-4 20 -10 0 -5 -4 -10 -9 -10 -5 0 -16 -3 -25 -6 -12 -5 -16 0 -16 19 0 14 -4
28 -9 31 -11 7 -20 53 -12 61 9 10 44 1 48 -12z m-137 -33 c0 -5 -2 -10 -4
-10 -3 0 -8 5 -11 10 -3 6 -1 10 4 10 6 0 11 -4 11 -10z m149 -89 c9 -6 10
-11 2 -15 -13 -8 -31 1 -31 15 0 11 11 11 29 0z m-922 -7 c-3 -3 -12 -4 -19
-1 -8 3 -5 6 6 6 11 1 17 -2 13 -5z m933 -39 c10 -12 10 -15 -1 -15 -8 0 -4
-8 10 -19 18 -13 20 -20 11 -26 -9 -6 -7 -11 10 -20 19 -10 20 -13 6 -18 -24
-9 -46 2 -46 24 0 10 -4 19 -9 19 -10 0 -21 57 -13 65 9 9 19 5 32 -10z m350
-13 c0 -15 -2 -15 -10 -2 -13 20 -13 33 0 25 6 -3 10 -14 10 -23z m-1255 8 c3
-5 1 -10 -4 -10 -6 0 -11 5 -11 10 0 6 2 10 4 10 3 0 8 -4 11 -10z m1057 -42
c-9 -9 -15 -9 -24 0 -9 9 -7 12 12 12 19 0 21 -3 12 -12z m168 2 c0 -5 -2 -10
-4 -10 -3 0 -8 5 -11 10 -3 6 -1 10 4 10 6 0 11 -4 11 -10z m33 -10 c-3 -11
-7 -20 -9 -20 -2 0 -4 9 -4 20 0 11 4 20 9 20 5 0 7 -9 4 -20z m-110 -37 c-13
-2 -35 -2 -50 0 -16 2 -5 4 22 4 28 0 40 -2 28 -4z m134 1 c-3 -3 -12 -4 -19
-1 -8 3 -5 6 6 6 11 1 17 -2 13 -5z m-342 -44 c3 -5 2 -10 -4 -10 -5 0 -13 5
-16 10 -3 6 -2 10 4 10 5 0 13 -4 16 -10z m15 -40 c0 -5 -4 -10 -10 -10 -5 0
-10 5 -10 10 0 6 5 10 10 10 6 0 10 -4 10 -10z"/>
<path d="M1615 4640 c3 -5 8 -10 11 -10 2 0 4 5 4 10 0 6 -5 10 -11 10 -5 0
-7 -4 -4 -10z"/>
<path d="M1760 1620 c-9 -6 -10 -10 -3 -10 6 0 15 5 18 10 8 12 4 12 -15 0z"/>
<path d="M1650 1540 c-8 -5 -12 -12 -9 -15 4 -3 12 1 19 10 14 17 11 19 -10 5z"/>
<path d="M1513 533 c15 -2 37 -2 50 0 12 2 0 4 -28 4 -27 0 -38 -2 -22 -4z"/>
<path d="M1734 4381 c20 -22 26 -25 26 -13 0 4 -10 13 -22 21 -23 14 -23 14
-4 -8z"/>
<path d="M1668 4383 c6 -2 18 -2 25 0 6 3 1 5 -13 5 -14 0 -19 -2 -12 -5z"/>
<path d="M2190 4080 c0 -5 5 -10 11 -10 5 0 7 5 4 10 -3 6 -8 10 -11 10 -2 0
-4 -4 -4 -10z"/>
<path d="M4233 4283 c4 -6 -2 -18 -13 -26 l-21 -14 22 -6 c23 -6 49 1 49 13 0
4 -10 15 -22 26 -12 10 -18 14 -15 7z"/>
<path d="M3825 4030 c3 -5 11 -10 16 -10 6 0 7 5 4 10 -3 6 -11 10 -16 10 -6
0 -7 -4 -4 -10z"/>
<path d="M4630 3760 c0 -5 5 -10 10 -10 6 0 10 5 10 10 0 6 -4 10 -10 10 -5 0
-10 -4 -10 -10z"/>
<path d="M4650 3731 c0 -7 -11 -22 -25 -33 -14 -11 -25 -24 -25 -30 0 -7 10
-2 23 9 12 12 30 23 40 25 16 3 17 5 3 23 -10 13 -15 15 -16 6z"/>
<path d="M4670 3681 c0 -5 7 -11 14 -14 10 -4 13 -1 9 9 -6 15 -23 19 -23 5z"/>
<path d="M4570 3640 c-8 -5 -12 -12 -9 -15 4 -3 12 1 19 10 14 17 11 19 -10 5z"/>
<path d="M4677 3593 c-9 -2 -15 -8 -12 -13 6 -9 -48 -30 -76 -30 -13 0 -19 -7
-19 -23 0 -13 -5 -28 -11 -34 -9 -9 -6 -10 12 -6 17 4 21 3 14 -5 -5 -6 -23
-13 -39 -16 -16 -3 -34 -11 -40 -17 -8 -9 -7 -10 4 -4 8 4 2 -4 -15 -18 -44
-37 -25 -43 41 -13 66 30 68 31 60 11 -4 -12 -2 -13 12 -6 9 5 20 9 25 10 4 1
6 3 5 4 -2 2 3 11 11 20 7 10 10 17 5 17 -5 0 -2 5 6 10 8 5 39 10 69 10 38 0
52 3 48 13 -42 105 -42 105 -100 90z"/>
<path d="M4792 3398 c2 -15 -2 -22 -10 -20 -8 1 -16 -6 -19 -17 -4 -15 -17
-22 -47 -26 -37 -6 -41 -9 -42 -36 -1 -29 -1 -29 50 -25 28 3 52 10 54 16 6
18 39 11 45 -10 3 -12 14 -20 26 -20 20 0 20 1 -7 77 -26 75 -55 110 -50 61z"/>
<path d="M4621 3364 c0 -11 3 -14 6 -6 3 7 2 16 -1 19 -3 4 -6 -2 -5 -13z"/>
<path d="M4612 3311 c-9 -26 -8 -29 14 -34 34 -6 50 24 25 47 -24 22 -27 21
-39 -13z"/>
<path d="M660 1446 c0 -2 7 -6 15 -10 8 -3 15 -1 15 4 0 6 -7 10 -15 10 -8 0
-15 -2 -15 -4z"/>
<path d="M714 1434 c4 -9 1 -23 -5 -30 -9 -11 -9 -14 0 -14 13 0 31 40 24 53
-8 14 -25 7 -19 -9z"/>
<path d="M666 1413 c-4 -4 -19 -7 -33 -8 -38 0 -39 -20 0 -20 34 0 57 10 57
26 0 11 -14 12 -24 2z"/>
<path d="M716 1315 c-3 -8 -1 -15 4 -15 13 0 22 18 11 24 -5 3 -11 -1 -15 -9z"/>
<path d="M3313 833 c15 -2 37 -2 50 0 12 2 0 4 -28 4 -27 0 -38 -2 -22 -4z"/>
<path d="M3284 535 c-19 -14 -18 -14 4 -15 13 0 22 6 22 15 0 19 -1 19 -26 0z"/>
<path d="M3986 515 c-11 -8 -15 -15 -10 -15 6 0 19 7 30 15 10 8 15 14 9 14
-5 0 -19 -6 -29 -14z"/>
<path d="M3270 481 c0 -5 9 -7 20 -4 11 3 20 7 20 9 0 2 -9 4 -20 4 -11 0 -20
-4 -20 -9z"/>
<path d="M3248 433 c7 -3 16 -2 19 1 4 3 -2 6 -13 5 -11 0 -14 -3 -6 -6z"/>
</g>
</svg>
